<svg xmlns="http://www.w3.org/2000/svg" version="1.1" xmlns:xlink="http://www.w3.org/1999/xlink" width="512" height="512" x="0" y="0" viewBox="0 0 512 512" style="enable-background:new 0 0 512 512" xml:space="preserve" class=""><g><linearGradient id="a"><stop offset="0" stop-color="#ff5e50"></stop><stop offset=".249" stop-color="#fe5c6c"></stop><stop offset=".377" stop-color="#e3658a"></stop><stop offset=".497" stop-color="#b87eb0"></stop><stop offset=".627" stop-color="#916cff"></stop><stop offset=".763" stop-color="#70bcfb" stop-opacity=".918"></stop><stop offset="1" stop-color="#21c7fe"></stop></linearGradient><linearGradient xlink:href="#a" id="b" x1="1092.084" x2="1194.833" y1="1813.726" y2="1680.365" gradientTransform="matrix(2.8346 0 0 -2.8346 -2983.627 5210.277)" gradientUnits="userSpaceOnUse"></linearGradient><linearGradient xlink:href="#a" id="c" x1="1091.807" x2="1194.556" y1="1813.513" y2="1680.152" gradientTransform="matrix(2.8346 0 0 -2.8346 -2983.627 5210.277)" gradientUnits="userSpaceOnUse"></linearGradient><path fill="url(#b)" d="M256 0C114.613 0 0 114.613 0 256s114.613 256 256 256 256-114.613 256-256S397.387 0 256 0zm0 490.496C126.492 490.496 21.504 385.508 21.504 256S126.492 21.504 256 21.504 490.496 126.492 490.496 256 385.508 490.496 256 490.496zm0 0" opacity="1" data-original="url(#b)"></path><path fill="url(#c)" d="M340.27 376.832c15.027-4.512 25.636-15.45 29.984-30.902l1.277-4.547.168-121.836c.13-91.242.008-122.406-.488-124.106-.523-1.8-1.348-3.316-2.434-4.511-1.586-1.004-3.5-1.532-5.664-1.532-1.496 0-6.683.739-11.523 1.641-21.414 3.988-147.637 29.719-149.79 30.531-3.335 1.262-6.64 4.262-8.206 7.446l-1.328 2.695s-.625 190.969-1.594 193.121c-1.473 3.27-4.734 6.371-7.742 7.36-1.426.468-7.067 1.761-12.535 2.874-25.325 5.16-34.73 8.875-42.688 16.868-4.516 4.539-7.863 10.734-9.312 17.238-1.38 6.215-.918 15.515 1.054 21.168 2.063 5.918 5.387 10.969 9.735 14.941 3.949 3.117 8.613 5.438 13.855 6.809 11.594 3.039 33.293-.34 44.395-6.906 4.636-2.746 10.605-8.512 13.71-13.25 1.227-1.871 3.079-5.653 4.11-8.391 3.613-9.605 3.726-180.688 4.191-182.844.782-3.652 3.223-6.332 6.59-7.238 3.031-.816 124.57-25.41 127.988-25.898 3.012-.43 5.856.562 7.407 2.515.922.508 1.695 1.192 2.242 2.027.984 1.504 1.047 4.48 1.191 58.645.172 62.344.242 60.883-3.066 64.816-2.406 2.864-5.418 3.97-17.77 6.547-18.793 3.926-25.226 5.793-32.422 9.39-8.988 4.493-13.98 9.415-17.835 17.59-2.73 5.786-3.75 10.122-3.743 15.88.02 10.293 3.489 18.336 11.317 26.21.719.723 1.43 1.399 2.14 2.036 3.946 3.117 7.965 4.996 13.02 6.187 7.625 1.797 23.144.614 33.766-2.574zm0 0" opacity="1" data-original="url(#c)"></path></g></svg>